# xmcd
#
# Track frame offsets:
#	150
#	23505
#	49154
#	72481
#	96628
#	121889
#	150946
#	180270
#	194953
#	217876
#	237342
#	266713
#
# Disc length: 3953 seconds
#
# Revision: 2
# Processed by: cddbd v1.5.2PL0 Copyright (c) Steve Scherf et al.
# Submitted via: audiograbber 1.83.01
#
DISCID=a70f6f0c
DTITLE=Various Artist - deja-tunes I
DYEAR=2002
DGENRE=Electronic
TTITLE0=Kaleidoscope - Sonne
TTITLE1=Deja-Move - Summerrain
TTITLE2=Marko Bokun - Breeze
TTITLE3=Aaron Bingle - Nightdivers
TTITLE4=Rothkirch Con Satulay y Sharone - 12 Hours
TTITLE5=PFL and Julia Messenger - For the Love of You
TTITLE6=Deja-Move meets Mr. Youshiaki - Across Waters
TTITLE7=Wiemer/Orenstein  - How Are You
TTITLE8=Toubab - Funky Fish Batucada
TTITLE9=Superpulse - Devious Cha-Cha
TTITLE10=Space Clique - Continue the Journey (micatone remix)
TTITLE11=Aaron Bingle/Venomspace  - Inner Oceanscene
EXTD=refinished titels
EXTT0=
EXTT1=
EXTT2=
EXTT3=
EXTT4=
EXTT5=
EXTT6=
EXTT7=
EXTT8=
EXTT9=
EXTT10=
EXTT11=
PLAYORDER=
